<mxfile host="app.diagrams.net" agent="Mozilla/5.0 (Windows NT 10.0; Win64; x64) AppleWebKit/537.36 (KHTML, like Gecko) Chrome/136.0.0.0 Safari/537.36 Avast/136.0.0.0" version="27.1.4">
  <diagram name="Page-1" id="NhCqAwKaUwQbF036LUha">
    <mxGraphModel dx="1042" dy="527" grid="1" gridSize="10" guides="1" tooltips="1" connect="1" arrows="1" fold="1" page="1" pageScale="1" pageWidth="827" pageHeight="1169" math="0" shadow="0">
      <root>
        <mxCell id="0" />
        <mxCell id="1" parent="0" />
        <mxCell id="DmfTN5r8OsK_OyeO2V6t-1" value="DJELATNIK" style="rounded=0;whiteSpace=wrap;html=1;" parent="1" vertex="1">
          <mxGeometry x="150" y="120" width="90" height="40" as="geometry" />
        </mxCell>
        <mxCell id="DmfTN5r8OsK_OyeO2V6t-2" value="VINOTEKA" style="rounded=0;whiteSpace=wrap;html=1;" parent="1" vertex="1">
          <mxGeometry x="400" y="120" width="90" height="40" as="geometry" />
        </mxCell>
        <mxCell id="DmfTN5r8OsK_OyeO2V6t-3" value="NARUDŽBA" style="rounded=0;whiteSpace=wrap;html=1;" parent="1" vertex="1">
          <mxGeometry x="640" y="120" width="90" height="40" as="geometry" />
        </mxCell>
        <mxCell id="DmfTN5r8OsK_OyeO2V6t-4" value="VINO" style="rounded=0;whiteSpace=wrap;html=1;" parent="1" vertex="1">
          <mxGeometry x="900" y="120" width="90" height="40" as="geometry" />
        </mxCell>
        <mxCell id="DmfTN5r8OsK_OyeO2V6t-5" value="DOBAVLJAČ" style="rounded=0;whiteSpace=wrap;html=1;" parent="1" vertex="1">
          <mxGeometry x="1150" y="120" width="90" height="40" as="geometry" />
        </mxCell>
        <mxCell id="DmfTN5r8OsK_OyeO2V6t-6" style="edgeStyle=orthogonalEdgeStyle;rounded=0;orthogonalLoop=1;jettySize=auto;html=1;exitX=1;exitY=0.5;exitDx=0;exitDy=0;entryX=0;entryY=0.5;entryDx=0;entryDy=0;" parent="1" source="DmfTN5r8OsK_OyeO2V6t-7" target="DmfTN5r8OsK_OyeO2V6t-2" edge="1">
          <mxGeometry relative="1" as="geometry" />
        </mxCell>
        <mxCell id="DmfTN5r8OsK_OyeO2V6t-7" value="RADI" style="rhombus;whiteSpace=wrap;html=1;" parent="1" vertex="1">
          <mxGeometry x="290" y="115" width="60" height="50" as="geometry" />
        </mxCell>
        <mxCell id="DmfTN5r8OsK_OyeO2V6t-8" style="edgeStyle=orthogonalEdgeStyle;rounded=0;orthogonalLoop=1;jettySize=auto;html=1;exitX=1;exitY=0.5;exitDx=0;exitDy=0;entryX=0;entryY=0.5;entryDx=0;entryDy=0;" parent="1" source="DmfTN5r8OsK_OyeO2V6t-9" target="DmfTN5r8OsK_OyeO2V6t-3" edge="1">
          <mxGeometry relative="1" as="geometry" />
        </mxCell>
        <mxCell id="DmfTN5r8OsK_OyeO2V6t-9" value="IMA" style="rhombus;whiteSpace=wrap;html=1;" parent="1" vertex="1">
          <mxGeometry x="534" y="115" width="60" height="50" as="geometry" />
        </mxCell>
        <mxCell id="DmfTN5r8OsK_OyeO2V6t-10" style="edgeStyle=orthogonalEdgeStyle;rounded=0;orthogonalLoop=1;jettySize=auto;html=1;exitX=1;exitY=0.5;exitDx=0;exitDy=0;entryX=0;entryY=0.5;entryDx=0;entryDy=0;" parent="1" source="DmfTN5r8OsK_OyeO2V6t-11" target="DmfTN5r8OsK_OyeO2V6t-4" edge="1">
          <mxGeometry relative="1" as="geometry" />
        </mxCell>
        <mxCell id="DmfTN5r8OsK_OyeO2V6t-11" value="SADRŽI" style="rhombus;whiteSpace=wrap;html=1;" parent="1" vertex="1">
          <mxGeometry x="790" y="115" width="60" height="50" as="geometry" />
        </mxCell>
        <mxCell id="DmfTN5r8OsK_OyeO2V6t-12" style="edgeStyle=orthogonalEdgeStyle;rounded=0;orthogonalLoop=1;jettySize=auto;html=1;exitX=1;exitY=0.5;exitDx=0;exitDy=0;entryX=0;entryY=0.5;entryDx=0;entryDy=0;" parent="1" source="DmfTN5r8OsK_OyeO2V6t-13" target="DmfTN5r8OsK_OyeO2V6t-5" edge="1">
          <mxGeometry relative="1" as="geometry" />
        </mxCell>
        <mxCell id="DmfTN5r8OsK_OyeO2V6t-13" value="&lt;font style=&quot;font-size: 9px;&quot;&gt;Nabavljeno&lt;/font&gt;&lt;div&gt;&lt;font style=&quot;font-size: 9px;&quot;&gt;&amp;nbsp;od&lt;/font&gt;&lt;/div&gt;" style="rhombus;whiteSpace=wrap;html=1;" parent="1" vertex="1">
          <mxGeometry x="1040" y="115" width="60" height="50" as="geometry" />
        </mxCell>
        <mxCell id="DmfTN5r8OsK_OyeO2V6t-14" value="KUPAC" style="rounded=0;whiteSpace=wrap;html=1;" parent="1" vertex="1">
          <mxGeometry x="400" y="260" width="90" height="40" as="geometry" />
        </mxCell>
        <mxCell id="DmfTN5r8OsK_OyeO2V6t-15" style="edgeStyle=orthogonalEdgeStyle;rounded=0;orthogonalLoop=1;jettySize=auto;html=1;exitX=0;exitY=0.5;exitDx=0;exitDy=0;entryX=1;entryY=0.5;entryDx=0;entryDy=0;" parent="1" source="DmfTN5r8OsK_OyeO2V6t-16" target="DmfTN5r8OsK_OyeO2V6t-14" edge="1">
          <mxGeometry relative="1" as="geometry" />
        </mxCell>
        <mxCell id="DmfTN5r8OsK_OyeO2V6t-16" value="&lt;font style=&quot;font-size: 9px;&quot;&gt;Napravljena od&lt;/font&gt;" style="rhombus;whiteSpace=wrap;html=1;" parent="1" vertex="1">
          <mxGeometry x="620" y="255" width="60" height="50" as="geometry" />
        </mxCell>
        <mxCell id="DmfTN5r8OsK_OyeO2V6t-17" value="" style="endArrow=none;html=1;rounded=0;exitX=0.5;exitY=0;exitDx=0;exitDy=0;" parent="1" source="DmfTN5r8OsK_OyeO2V6t-16" edge="1">
          <mxGeometry width="50" height="50" relative="1" as="geometry">
            <mxPoint x="630" y="250" as="sourcePoint" />
            <mxPoint x="650" y="162" as="targetPoint" />
          </mxGeometry>
        </mxCell>
        <mxCell id="DmfTN5r8OsK_OyeO2V6t-18" value="" style="endArrow=none;html=1;rounded=0;exitX=1;exitY=0.5;exitDx=0;exitDy=0;entryX=0;entryY=0.5;entryDx=0;entryDy=0;" parent="1" source="DmfTN5r8OsK_OyeO2V6t-1" target="DmfTN5r8OsK_OyeO2V6t-7" edge="1">
          <mxGeometry width="50" height="50" relative="1" as="geometry">
            <mxPoint x="630" y="250" as="sourcePoint" />
            <mxPoint x="680" y="200" as="targetPoint" />
          </mxGeometry>
        </mxCell>
        <mxCell id="DmfTN5r8OsK_OyeO2V6t-19" value="" style="endArrow=none;html=1;rounded=0;exitX=1;exitY=0.5;exitDx=0;exitDy=0;entryX=0;entryY=0.5;entryDx=0;entryDy=0;" parent="1" source="DmfTN5r8OsK_OyeO2V6t-2" target="DmfTN5r8OsK_OyeO2V6t-9" edge="1">
          <mxGeometry width="50" height="50" relative="1" as="geometry">
            <mxPoint x="630" y="250" as="sourcePoint" />
            <mxPoint x="530" y="140" as="targetPoint" />
          </mxGeometry>
        </mxCell>
        <mxCell id="DmfTN5r8OsK_OyeO2V6t-20" value="" style="endArrow=none;html=1;rounded=0;exitX=1;exitY=0.5;exitDx=0;exitDy=0;entryX=0;entryY=0.5;entryDx=0;entryDy=0;" parent="1" source="DmfTN5r8OsK_OyeO2V6t-3" target="DmfTN5r8OsK_OyeO2V6t-11" edge="1">
          <mxGeometry width="50" height="50" relative="1" as="geometry">
            <mxPoint x="630" y="250" as="sourcePoint" />
            <mxPoint x="680" y="200" as="targetPoint" />
          </mxGeometry>
        </mxCell>
        <mxCell id="DmfTN5r8OsK_OyeO2V6t-21" value="" style="endArrow=none;html=1;rounded=0;exitX=1;exitY=0.5;exitDx=0;exitDy=0;entryX=0;entryY=0.5;entryDx=0;entryDy=0;" parent="1" source="DmfTN5r8OsK_OyeO2V6t-4" target="DmfTN5r8OsK_OyeO2V6t-13" edge="1">
          <mxGeometry width="50" height="50" relative="1" as="geometry">
            <mxPoint x="630" y="250" as="sourcePoint" />
            <mxPoint x="680" y="200" as="targetPoint" />
          </mxGeometry>
        </mxCell>
        <mxCell id="DmfTN5r8OsK_OyeO2V6t-23" value="RAČUN" style="rounded=0;whiteSpace=wrap;html=1;" parent="1" vertex="1">
          <mxGeometry x="400" y="360" width="90" height="40" as="geometry" />
        </mxCell>
        <mxCell id="DmfTN5r8OsK_OyeO2V6t-27" value="&lt;font style=&quot;font-size: 10px;&quot;&gt;IZDAJE&amp;nbsp;&lt;/font&gt;&lt;div&gt;&lt;font style=&quot;font-size: 10px;&quot;&gt;SE ZA&lt;/font&gt;&lt;/div&gt;" style="rhombus;whiteSpace=wrap;html=1;" parent="1" vertex="1">
          <mxGeometry x="630" y="355" width="60" height="50" as="geometry" />
        </mxCell>
        <mxCell id="DmfTN5r8OsK_OyeO2V6t-28" style="edgeStyle=orthogonalEdgeStyle;rounded=0;orthogonalLoop=1;jettySize=auto;html=1;exitX=1;exitY=0.5;exitDx=0;exitDy=0;entryX=0.884;entryY=1.01;entryDx=0;entryDy=0;entryPerimeter=0;" parent="1" source="DmfTN5r8OsK_OyeO2V6t-27" target="DmfTN5r8OsK_OyeO2V6t-3" edge="1">
          <mxGeometry relative="1" as="geometry">
            <Array as="points">
              <mxPoint x="720" y="380" />
            </Array>
          </mxGeometry>
        </mxCell>
        <mxCell id="DmfTN5r8OsK_OyeO2V6t-29" value="" style="endArrow=none;html=1;rounded=0;exitX=1;exitY=0.5;exitDx=0;exitDy=0;entryX=0;entryY=0.5;entryDx=0;entryDy=0;" parent="1" source="DmfTN5r8OsK_OyeO2V6t-23" target="DmfTN5r8OsK_OyeO2V6t-27" edge="1">
          <mxGeometry width="50" height="50" relative="1" as="geometry">
            <mxPoint x="670" y="250" as="sourcePoint" />
            <mxPoint x="720" y="200" as="targetPoint" />
          </mxGeometry>
        </mxCell>
        <mxCell id="DmfTN5r8OsK_OyeO2V6t-30" value="ID" style="ellipse;whiteSpace=wrap;html=1;" parent="1" vertex="1">
          <mxGeometry y="50" width="60" height="30" as="geometry" />
        </mxCell>
        <mxCell id="DmfTN5r8OsK_OyeO2V6t-31" value="&lt;font style=&quot;font-size: 10px;&quot;&gt;Korisnicko ime&lt;/font&gt;" style="ellipse;whiteSpace=wrap;html=1;" parent="1" vertex="1">
          <mxGeometry y="90" width="60" height="30" as="geometry" />
        </mxCell>
        <mxCell id="DmfTN5r8OsK_OyeO2V6t-32" value="Email" style="ellipse;whiteSpace=wrap;html=1;" parent="1" vertex="1">
          <mxGeometry y="130" width="60" height="30" as="geometry" />
        </mxCell>
        <mxCell id="DmfTN5r8OsK_OyeO2V6t-33" value="Lozinka" style="ellipse;whiteSpace=wrap;html=1;" parent="1" vertex="1">
          <mxGeometry y="170" width="60" height="30" as="geometry" />
        </mxCell>
        <mxCell id="DmfTN5r8OsK_OyeO2V6t-34" value="Naziv" style="ellipse;whiteSpace=wrap;html=1;" parent="1" vertex="1">
          <mxGeometry x="340" y="50" width="60" height="30" as="geometry" />
        </mxCell>
        <mxCell id="DmfTN5r8OsK_OyeO2V6t-35" value="Adresa" style="ellipse;whiteSpace=wrap;html=1;" parent="1" vertex="1">
          <mxGeometry x="415" y="50" width="60" height="30" as="geometry" />
        </mxCell>
        <mxCell id="DmfTN5r8OsK_OyeO2V6t-36" value="Kontakt" style="ellipse;whiteSpace=wrap;html=1;" parent="1" vertex="1">
          <mxGeometry x="490" y="50" width="60" height="30" as="geometry" />
        </mxCell>
        <mxCell id="DmfTN5r8OsK_OyeO2V6t-37" value="" style="endArrow=classic;html=1;rounded=0;exitX=0;exitY=0.25;exitDx=0;exitDy=0;entryX=1;entryY=0.5;entryDx=0;entryDy=0;" parent="1" source="DmfTN5r8OsK_OyeO2V6t-1" target="DmfTN5r8OsK_OyeO2V6t-30" edge="1">
          <mxGeometry width="50" height="50" relative="1" as="geometry">
            <mxPoint x="470" y="250" as="sourcePoint" />
            <mxPoint x="520" y="200" as="targetPoint" />
          </mxGeometry>
        </mxCell>
        <mxCell id="DmfTN5r8OsK_OyeO2V6t-38" value="" style="endArrow=classic;html=1;rounded=0;exitX=0;exitY=0.5;exitDx=0;exitDy=0;entryX=1;entryY=0.5;entryDx=0;entryDy=0;" parent="1" source="DmfTN5r8OsK_OyeO2V6t-1" target="DmfTN5r8OsK_OyeO2V6t-31" edge="1">
          <mxGeometry width="50" height="50" relative="1" as="geometry">
            <mxPoint x="470" y="250" as="sourcePoint" />
            <mxPoint x="520" y="200" as="targetPoint" />
          </mxGeometry>
        </mxCell>
        <mxCell id="DmfTN5r8OsK_OyeO2V6t-39" value="" style="endArrow=classic;html=1;rounded=0;exitX=0;exitY=0.75;exitDx=0;exitDy=0;entryX=1;entryY=0.5;entryDx=0;entryDy=0;" parent="1" source="DmfTN5r8OsK_OyeO2V6t-1" target="DmfTN5r8OsK_OyeO2V6t-32" edge="1">
          <mxGeometry width="50" height="50" relative="1" as="geometry">
            <mxPoint x="470" y="250" as="sourcePoint" />
            <mxPoint x="520" y="200" as="targetPoint" />
          </mxGeometry>
        </mxCell>
        <mxCell id="DmfTN5r8OsK_OyeO2V6t-40" value="" style="endArrow=classic;html=1;rounded=0;exitX=0;exitY=1;exitDx=0;exitDy=0;entryX=1;entryY=0.5;entryDx=0;entryDy=0;" parent="1" source="DmfTN5r8OsK_OyeO2V6t-1" target="DmfTN5r8OsK_OyeO2V6t-33" edge="1">
          <mxGeometry width="50" height="50" relative="1" as="geometry">
            <mxPoint x="470" y="250" as="sourcePoint" />
            <mxPoint x="520" y="200" as="targetPoint" />
          </mxGeometry>
        </mxCell>
        <mxCell id="DmfTN5r8OsK_OyeO2V6t-41" value="" style="endArrow=classic;html=1;rounded=0;exitX=0.25;exitY=0;exitDx=0;exitDy=0;entryX=0.65;entryY=1.04;entryDx=0;entryDy=0;entryPerimeter=0;" parent="1" source="DmfTN5r8OsK_OyeO2V6t-2" target="DmfTN5r8OsK_OyeO2V6t-34" edge="1">
          <mxGeometry width="50" height="50" relative="1" as="geometry">
            <mxPoint x="560" y="160" as="sourcePoint" />
            <mxPoint x="610" y="110" as="targetPoint" />
          </mxGeometry>
        </mxCell>
        <mxCell id="DmfTN5r8OsK_OyeO2V6t-42" value="" style="endArrow=classic;html=1;rounded=0;exitX=0.5;exitY=0;exitDx=0;exitDy=0;entryX=0.5;entryY=1;entryDx=0;entryDy=0;" parent="1" source="DmfTN5r8OsK_OyeO2V6t-2" target="DmfTN5r8OsK_OyeO2V6t-35" edge="1">
          <mxGeometry width="50" height="50" relative="1" as="geometry">
            <mxPoint x="470" y="250" as="sourcePoint" />
            <mxPoint x="520" y="200" as="targetPoint" />
          </mxGeometry>
        </mxCell>
        <mxCell id="DmfTN5r8OsK_OyeO2V6t-43" value="" style="endArrow=classic;html=1;rounded=0;exitX=0.75;exitY=0;exitDx=0;exitDy=0;entryX=0.5;entryY=1;entryDx=0;entryDy=0;" parent="1" source="DmfTN5r8OsK_OyeO2V6t-2" target="DmfTN5r8OsK_OyeO2V6t-36" edge="1">
          <mxGeometry width="50" height="50" relative="1" as="geometry">
            <mxPoint x="470" y="250" as="sourcePoint" />
            <mxPoint x="520" y="200" as="targetPoint" />
          </mxGeometry>
        </mxCell>
        <mxCell id="DmfTN5r8OsK_OyeO2V6t-44" value="Iznos" style="ellipse;whiteSpace=wrap;html=1;" parent="1" vertex="1">
          <mxGeometry x="594" y="50" width="60" height="30" as="geometry" />
        </mxCell>
        <mxCell id="DmfTN5r8OsK_OyeO2V6t-45" value="Vrijeme" style="ellipse;whiteSpace=wrap;html=1;" parent="1" vertex="1">
          <mxGeometry x="660" y="50" width="60" height="30" as="geometry" />
        </mxCell>
        <mxCell id="DmfTN5r8OsK_OyeO2V6t-46" value="Datum" style="ellipse;whiteSpace=wrap;html=1;" parent="1" vertex="1">
          <mxGeometry x="730" y="50" width="60" height="30" as="geometry" />
        </mxCell>
        <mxCell id="DmfTN5r8OsK_OyeO2V6t-47" value="" style="endArrow=classic;html=1;rounded=0;exitX=0.25;exitY=0;exitDx=0;exitDy=0;entryX=0.5;entryY=1;entryDx=0;entryDy=0;" parent="1" source="DmfTN5r8OsK_OyeO2V6t-3" target="DmfTN5r8OsK_OyeO2V6t-44" edge="1">
          <mxGeometry width="50" height="50" relative="1" as="geometry">
            <mxPoint x="470" y="250" as="sourcePoint" />
            <mxPoint x="520" y="200" as="targetPoint" />
          </mxGeometry>
        </mxCell>
        <mxCell id="DmfTN5r8OsK_OyeO2V6t-48" value="" style="endArrow=classic;html=1;rounded=0;exitX=0.556;exitY=0;exitDx=0;exitDy=0;entryX=0.5;entryY=1;entryDx=0;entryDy=0;exitPerimeter=0;" parent="1" source="DmfTN5r8OsK_OyeO2V6t-3" target="DmfTN5r8OsK_OyeO2V6t-45" edge="1">
          <mxGeometry width="50" height="50" relative="1" as="geometry">
            <mxPoint x="470" y="250" as="sourcePoint" />
            <mxPoint x="520" y="200" as="targetPoint" />
          </mxGeometry>
        </mxCell>
        <mxCell id="DmfTN5r8OsK_OyeO2V6t-49" value="" style="endArrow=classic;html=1;rounded=0;exitX=0.75;exitY=0;exitDx=0;exitDy=0;entryX=0.5;entryY=1;entryDx=0;entryDy=0;" parent="1" source="DmfTN5r8OsK_OyeO2V6t-3" target="DmfTN5r8OsK_OyeO2V6t-46" edge="1">
          <mxGeometry width="50" height="50" relative="1" as="geometry">
            <mxPoint x="470" y="250" as="sourcePoint" />
            <mxPoint x="520" y="200" as="targetPoint" />
          </mxGeometry>
        </mxCell>
        <mxCell id="DmfTN5r8OsK_OyeO2V6t-50" value="ID" style="ellipse;whiteSpace=wrap;html=1;" parent="1" vertex="1">
          <mxGeometry x="310" y="190" width="60" height="30" as="geometry" />
        </mxCell>
        <mxCell id="DmfTN5r8OsK_OyeO2V6t-51" value="&lt;font style=&quot;font-size: 10px;&quot;&gt;Korisničko ime&lt;/font&gt;" style="ellipse;whiteSpace=wrap;html=1;" parent="1" vertex="1">
          <mxGeometry x="310" y="230" width="60" height="30" as="geometry" />
        </mxCell>
        <mxCell id="DmfTN5r8OsK_OyeO2V6t-52" value="Email" style="ellipse;whiteSpace=wrap;html=1;" parent="1" vertex="1">
          <mxGeometry x="310" y="270" width="60" height="30" as="geometry" />
        </mxCell>
        <mxCell id="DmfTN5r8OsK_OyeO2V6t-53" value="Lozinka" style="ellipse;whiteSpace=wrap;html=1;" parent="1" vertex="1">
          <mxGeometry x="310" y="310" width="60" height="30" as="geometry" />
        </mxCell>
        <mxCell id="DmfTN5r8OsK_OyeO2V6t-54" value="" style="endArrow=classic;html=1;rounded=0;exitX=0;exitY=0.25;exitDx=0;exitDy=0;entryX=1;entryY=0.5;entryDx=0;entryDy=0;" parent="1" source="DmfTN5r8OsK_OyeO2V6t-14" target="DmfTN5r8OsK_OyeO2V6t-50" edge="1">
          <mxGeometry width="50" height="50" relative="1" as="geometry">
            <mxPoint x="470" y="250" as="sourcePoint" />
            <mxPoint x="520" y="200" as="targetPoint" />
          </mxGeometry>
        </mxCell>
        <mxCell id="DmfTN5r8OsK_OyeO2V6t-55" value="" style="endArrow=classic;html=1;rounded=0;exitX=0;exitY=0.5;exitDx=0;exitDy=0;entryX=1;entryY=0.5;entryDx=0;entryDy=0;" parent="1" source="DmfTN5r8OsK_OyeO2V6t-14" target="DmfTN5r8OsK_OyeO2V6t-51" edge="1">
          <mxGeometry width="50" height="50" relative="1" as="geometry">
            <mxPoint x="470" y="250" as="sourcePoint" />
            <mxPoint x="520" y="200" as="targetPoint" />
          </mxGeometry>
        </mxCell>
        <mxCell id="DmfTN5r8OsK_OyeO2V6t-56" value="" style="endArrow=classic;html=1;rounded=0;exitX=0;exitY=0.75;exitDx=0;exitDy=0;entryX=1;entryY=0.5;entryDx=0;entryDy=0;" parent="1" source="DmfTN5r8OsK_OyeO2V6t-14" target="DmfTN5r8OsK_OyeO2V6t-52" edge="1">
          <mxGeometry width="50" height="50" relative="1" as="geometry">
            <mxPoint x="470" y="250" as="sourcePoint" />
            <mxPoint x="520" y="200" as="targetPoint" />
          </mxGeometry>
        </mxCell>
        <mxCell id="DmfTN5r8OsK_OyeO2V6t-57" value="" style="endArrow=classic;html=1;rounded=0;exitX=0;exitY=1;exitDx=0;exitDy=0;entryX=1;entryY=0.5;entryDx=0;entryDy=0;" parent="1" source="DmfTN5r8OsK_OyeO2V6t-14" target="DmfTN5r8OsK_OyeO2V6t-53" edge="1">
          <mxGeometry width="50" height="50" relative="1" as="geometry">
            <mxPoint x="470" y="250" as="sourcePoint" />
            <mxPoint x="520" y="200" as="targetPoint" />
          </mxGeometry>
        </mxCell>
        <mxCell id="DmfTN5r8OsK_OyeO2V6t-58" value="ID" style="ellipse;whiteSpace=wrap;html=1;" parent="1" vertex="1">
          <mxGeometry x="850" y="50" width="60" height="30" as="geometry" />
        </mxCell>
        <mxCell id="DmfTN5r8OsK_OyeO2V6t-59" value="Naziv" style="ellipse;whiteSpace=wrap;html=1;" parent="1" vertex="1">
          <mxGeometry x="915" y="50" width="60" height="30" as="geometry" />
        </mxCell>
        <mxCell id="DmfTN5r8OsK_OyeO2V6t-60" value="Sorta" style="ellipse;whiteSpace=wrap;html=1;" parent="1" vertex="1">
          <mxGeometry x="980" y="50" width="60" height="30" as="geometry" />
        </mxCell>
        <mxCell id="DmfTN5r8OsK_OyeO2V6t-61" value="Cijena" style="ellipse;whiteSpace=wrap;html=1;" parent="1" vertex="1">
          <mxGeometry x="870" width="60" height="30" as="geometry" />
        </mxCell>
        <mxCell id="DmfTN5r8OsK_OyeO2V6t-62" value="&lt;font style=&quot;font-size: 10px;&quot;&gt;Godina proizvodnje&lt;/font&gt;" style="ellipse;whiteSpace=wrap;html=1;" parent="1" vertex="1">
          <mxGeometry x="960" width="60" height="30" as="geometry" />
        </mxCell>
        <mxCell id="DmfTN5r8OsK_OyeO2V6t-63" value="" style="endArrow=classic;html=1;rounded=0;exitX=0;exitY=0;exitDx=0;exitDy=0;entryX=0.63;entryY=1.147;entryDx=0;entryDy=0;entryPerimeter=0;" parent="1" source="DmfTN5r8OsK_OyeO2V6t-4" target="DmfTN5r8OsK_OyeO2V6t-58" edge="1">
          <mxGeometry width="50" height="50" relative="1" as="geometry">
            <mxPoint x="810" y="250" as="sourcePoint" />
            <mxPoint x="860" y="200" as="targetPoint" />
          </mxGeometry>
        </mxCell>
        <mxCell id="DmfTN5r8OsK_OyeO2V6t-64" value="" style="endArrow=classic;html=1;rounded=0;exitX=0.25;exitY=0;exitDx=0;exitDy=0;entryX=0.63;entryY=1.08;entryDx=0;entryDy=0;entryPerimeter=0;" parent="1" source="DmfTN5r8OsK_OyeO2V6t-4" target="DmfTN5r8OsK_OyeO2V6t-61" edge="1">
          <mxGeometry width="50" height="50" relative="1" as="geometry">
            <mxPoint x="810" y="250" as="sourcePoint" />
            <mxPoint x="860" y="200" as="targetPoint" />
          </mxGeometry>
        </mxCell>
        <mxCell id="DmfTN5r8OsK_OyeO2V6t-65" value="" style="endArrow=classic;html=1;rounded=0;exitX=0.75;exitY=0;exitDx=0;exitDy=0;entryX=0.357;entryY=1.107;entryDx=0;entryDy=0;entryPerimeter=0;" parent="1" source="DmfTN5r8OsK_OyeO2V6t-4" target="DmfTN5r8OsK_OyeO2V6t-62" edge="1">
          <mxGeometry width="50" height="50" relative="1" as="geometry">
            <mxPoint x="810" y="250" as="sourcePoint" />
            <mxPoint x="860" y="200" as="targetPoint" />
          </mxGeometry>
        </mxCell>
        <mxCell id="DmfTN5r8OsK_OyeO2V6t-66" value="" style="endArrow=classic;html=1;rounded=0;exitX=0.5;exitY=0;exitDx=0;exitDy=0;entryX=0.5;entryY=1;entryDx=0;entryDy=0;" parent="1" source="DmfTN5r8OsK_OyeO2V6t-4" target="DmfTN5r8OsK_OyeO2V6t-59" edge="1">
          <mxGeometry width="50" height="50" relative="1" as="geometry">
            <mxPoint x="810" y="250" as="sourcePoint" />
            <mxPoint x="860" y="200" as="targetPoint" />
          </mxGeometry>
        </mxCell>
        <mxCell id="DmfTN5r8OsK_OyeO2V6t-67" value="" style="endArrow=classic;html=1;rounded=0;exitX=1;exitY=0;exitDx=0;exitDy=0;entryX=0.5;entryY=1;entryDx=0;entryDy=0;" parent="1" source="DmfTN5r8OsK_OyeO2V6t-4" target="DmfTN5r8OsK_OyeO2V6t-60" edge="1">
          <mxGeometry width="50" height="50" relative="1" as="geometry">
            <mxPoint x="810" y="250" as="sourcePoint" />
            <mxPoint x="860" y="200" as="targetPoint" />
          </mxGeometry>
        </mxCell>
        <mxCell id="DmfTN5r8OsK_OyeO2V6t-68" value="Naziv" style="ellipse;whiteSpace=wrap;html=1;" parent="1" vertex="1">
          <mxGeometry x="1100" y="50" width="60" height="30" as="geometry" />
        </mxCell>
        <mxCell id="DmfTN5r8OsK_OyeO2V6t-69" value="Kontakt&amp;nbsp;" style="ellipse;whiteSpace=wrap;html=1;" parent="1" vertex="1">
          <mxGeometry x="1170" y="50" width="60" height="30" as="geometry" />
        </mxCell>
        <mxCell id="DmfTN5r8OsK_OyeO2V6t-70" value="Adresa" style="ellipse;whiteSpace=wrap;html=1;" parent="1" vertex="1">
          <mxGeometry x="1240" y="50" width="60" height="30" as="geometry" />
        </mxCell>
        <mxCell id="DmfTN5r8OsK_OyeO2V6t-71" value="" style="endArrow=classic;html=1;rounded=0;exitX=0.25;exitY=0;exitDx=0;exitDy=0;entryX=1;entryY=1;entryDx=0;entryDy=0;" parent="1" source="DmfTN5r8OsK_OyeO2V6t-5" target="DmfTN5r8OsK_OyeO2V6t-68" edge="1">
          <mxGeometry width="50" height="50" relative="1" as="geometry">
            <mxPoint x="810" y="250" as="sourcePoint" />
            <mxPoint x="860" y="200" as="targetPoint" />
          </mxGeometry>
        </mxCell>
        <mxCell id="DmfTN5r8OsK_OyeO2V6t-72" value="" style="endArrow=classic;html=1;rounded=0;exitX=0.5;exitY=0;exitDx=0;exitDy=0;entryX=0.5;entryY=1;entryDx=0;entryDy=0;" parent="1" source="DmfTN5r8OsK_OyeO2V6t-5" target="DmfTN5r8OsK_OyeO2V6t-69" edge="1">
          <mxGeometry width="50" height="50" relative="1" as="geometry">
            <mxPoint x="1160" y="200" as="sourcePoint" />
            <mxPoint x="860" y="200" as="targetPoint" />
          </mxGeometry>
        </mxCell>
        <mxCell id="DmfTN5r8OsK_OyeO2V6t-73" value="" style="endArrow=classic;html=1;rounded=0;exitX=0.75;exitY=0;exitDx=0;exitDy=0;entryX=0;entryY=1;entryDx=0;entryDy=0;" parent="1" source="DmfTN5r8OsK_OyeO2V6t-5" target="DmfTN5r8OsK_OyeO2V6t-70" edge="1">
          <mxGeometry width="50" height="50" relative="1" as="geometry">
            <mxPoint x="1240" y="200" as="sourcePoint" />
            <mxPoint x="860" y="200" as="targetPoint" />
          </mxGeometry>
        </mxCell>
        <mxCell id="DmfTN5r8OsK_OyeO2V6t-74" value="ID" style="ellipse;whiteSpace=wrap;html=1;" parent="1" vertex="1">
          <mxGeometry x="380" y="440" width="60" height="30" as="geometry" />
        </mxCell>
        <mxCell id="DmfTN5r8OsK_OyeO2V6t-75" value="Datum" style="ellipse;whiteSpace=wrap;html=1;" parent="1" vertex="1">
          <mxGeometry x="534" y="440" width="60" height="30" as="geometry" />
        </mxCell>
        <mxCell id="DmfTN5r8OsK_OyeO2V6t-76" value="Vrijednost" style="ellipse;whiteSpace=wrap;html=1;" parent="1" vertex="1">
          <mxGeometry x="460" y="440" width="60" height="30" as="geometry" />
        </mxCell>
        <mxCell id="DmfTN5r8OsK_OyeO2V6t-77" value="&lt;font style=&quot;font-size: 10px;&quot;&gt;Način plaćanja&lt;/font&gt;" style="ellipse;whiteSpace=wrap;html=1;" parent="1" vertex="1">
          <mxGeometry x="420" y="470" width="60" height="30" as="geometry" />
        </mxCell>
        <mxCell id="DmfTN5r8OsK_OyeO2V6t-78" value="" style="endArrow=classic;html=1;rounded=0;exitX=0.25;exitY=1;exitDx=0;exitDy=0;entryX=0.5;entryY=0;entryDx=0;entryDy=0;" parent="1" source="DmfTN5r8OsK_OyeO2V6t-23" target="DmfTN5r8OsK_OyeO2V6t-74" edge="1">
          <mxGeometry width="50" height="50" relative="1" as="geometry">
            <mxPoint x="400" y="250" as="sourcePoint" />
            <mxPoint x="450" y="200" as="targetPoint" />
          </mxGeometry>
        </mxCell>
        <mxCell id="DmfTN5r8OsK_OyeO2V6t-79" value="" style="endArrow=classic;html=1;rounded=0;entryX=0.5;entryY=0;entryDx=0;entryDy=0;exitX=0.416;exitY=1.01;exitDx=0;exitDy=0;exitPerimeter=0;" parent="1" source="DmfTN5r8OsK_OyeO2V6t-23" target="DmfTN5r8OsK_OyeO2V6t-77" edge="1">
          <mxGeometry width="50" height="50" relative="1" as="geometry">
            <mxPoint x="430" y="400" as="sourcePoint" />
            <mxPoint x="450" y="200" as="targetPoint" />
          </mxGeometry>
        </mxCell>
        <mxCell id="DmfTN5r8OsK_OyeO2V6t-80" value="" style="endArrow=classic;html=1;rounded=0;exitX=0.5;exitY=1;exitDx=0;exitDy=0;entryX=0.5;entryY=0;entryDx=0;entryDy=0;" parent="1" source="DmfTN5r8OsK_OyeO2V6t-23" target="DmfTN5r8OsK_OyeO2V6t-76" edge="1">
          <mxGeometry width="50" height="50" relative="1" as="geometry">
            <mxPoint x="400" y="250" as="sourcePoint" />
            <mxPoint x="450" y="200" as="targetPoint" />
          </mxGeometry>
        </mxCell>
        <mxCell id="DmfTN5r8OsK_OyeO2V6t-81" value="" style="endArrow=classic;html=1;rounded=0;exitX=0.75;exitY=1;exitDx=0;exitDy=0;entryX=0.5;entryY=0;entryDx=0;entryDy=0;" parent="1" source="DmfTN5r8OsK_OyeO2V6t-23" target="DmfTN5r8OsK_OyeO2V6t-75" edge="1">
          <mxGeometry width="50" height="50" relative="1" as="geometry">
            <mxPoint x="400" y="250" as="sourcePoint" />
            <mxPoint x="450" y="200" as="targetPoint" />
          </mxGeometry>
        </mxCell>
        <mxCell id="DmfTN5r8OsK_OyeO2V6t-82" value="1" style="text;html=1;align=center;verticalAlign=middle;resizable=0;points=[];autosize=1;strokeColor=none;fillColor=none;" parent="1" vertex="1">
          <mxGeometry x="370" y="115" width="30" height="30" as="geometry" />
        </mxCell>
        <mxCell id="DmfTN5r8OsK_OyeO2V6t-83" value="N" style="text;html=1;align=center;verticalAlign=middle;resizable=0;points=[];autosize=1;strokeColor=none;fillColor=none;" parent="1" vertex="1">
          <mxGeometry x="240" y="115" width="30" height="30" as="geometry" />
        </mxCell>
        <mxCell id="DmfTN5r8OsK_OyeO2V6t-84" value="N" style="text;html=1;align=center;verticalAlign=middle;resizable=0;points=[];autosize=1;strokeColor=none;fillColor=none;" parent="1" vertex="1">
          <mxGeometry x="615" y="118" width="30" height="30" as="geometry" />
        </mxCell>
        <mxCell id="DmfTN5r8OsK_OyeO2V6t-85" value="1" style="text;html=1;align=center;verticalAlign=middle;resizable=0;points=[];autosize=1;strokeColor=none;fillColor=none;" parent="1" vertex="1">
          <mxGeometry x="485" y="118" width="30" height="30" as="geometry" />
        </mxCell>
        <mxCell id="DmfTN5r8OsK_OyeO2V6t-86" value="N" style="text;html=1;align=center;verticalAlign=middle;resizable=0;points=[];autosize=1;strokeColor=none;fillColor=none;" parent="1" vertex="1">
          <mxGeometry x="725" y="118" width="30" height="30" as="geometry" />
        </mxCell>
        <mxCell id="DmfTN5r8OsK_OyeO2V6t-87" value="N" style="text;html=1;align=center;verticalAlign=middle;resizable=0;points=[];autosize=1;strokeColor=none;fillColor=none;" parent="1" vertex="1">
          <mxGeometry x="865" y="118" width="30" height="30" as="geometry" />
        </mxCell>
        <mxCell id="DmfTN5r8OsK_OyeO2V6t-88" value="1" style="text;html=1;align=center;verticalAlign=middle;resizable=0;points=[];autosize=1;strokeColor=none;fillColor=none;" parent="1" vertex="1">
          <mxGeometry x="1120" y="115" width="30" height="30" as="geometry" />
        </mxCell>
        <mxCell id="DmfTN5r8OsK_OyeO2V6t-89" value="N" style="text;html=1;align=center;verticalAlign=middle;resizable=0;points=[];autosize=1;strokeColor=none;fillColor=none;" parent="1" vertex="1">
          <mxGeometry x="995" y="115" width="30" height="30" as="geometry" />
        </mxCell>
        <mxCell id="DmfTN5r8OsK_OyeO2V6t-90" value="N" style="text;html=1;align=center;verticalAlign=middle;resizable=0;points=[];autosize=1;strokeColor=none;fillColor=none;" parent="1" vertex="1">
          <mxGeometry x="625" y="158" width="30" height="30" as="geometry" />
        </mxCell>
        <mxCell id="DmfTN5r8OsK_OyeO2V6t-91" value="1" style="text;html=1;align=center;verticalAlign=middle;resizable=0;points=[];autosize=1;strokeColor=none;fillColor=none;" parent="1" vertex="1">
          <mxGeometry x="490" y="255" width="30" height="30" as="geometry" />
        </mxCell>
        <mxCell id="DmfTN5r8OsK_OyeO2V6t-92" value="N" style="text;html=1;align=center;verticalAlign=middle;resizable=0;points=[];autosize=1;strokeColor=none;fillColor=none;" parent="1" vertex="1">
          <mxGeometry x="490" y="355" width="30" height="30" as="geometry" />
        </mxCell>
        <mxCell id="DmfTN5r8OsK_OyeO2V6t-93" value="1" style="text;html=1;align=center;verticalAlign=middle;resizable=0;points=[];autosize=1;strokeColor=none;fillColor=none;" parent="1" vertex="1">
          <mxGeometry x="715" y="158" width="30" height="30" as="geometry" />
        </mxCell>
      </root>
    </mxGraphModel>
  </diagram>
</mxfile>
